<?xml version="1.0" encoding="UTF-8" standalone="no" ?>
<!DOCTYPE svg PUBLIC "-//W3C//DTD SVG 1.1//EN" "http://www.w3.org/Graphics/SVG/1.1/DTD/svg11.dtd">
<svg xmlns="http://www.w3.org/2000/svg" xmlns:xlink="http://www.w3.org/1999/xlink" version="1.1" width="1080" height="1080" viewBox="0 0 1080 1080" xml:space="preserve">
<desc>Created with Fabric.js 5.2.4</desc>
<defs>
</defs>
<g transform="matrix(1 0 0 1 540 540)" id="5f44b225-8f17-40d9-87ba-04eebe606b9c"  >
<rect style="stroke: none; stroke-width: 1; stroke-dasharray: none; stroke-linecap: butt; stroke-dashoffset: 0; stroke-linejoin: miter; stroke-miterlimit: 4; fill: rgb(255,255,255); fill-rule: nonzero; opacity: 1; visibility: hidden;" vector-effect="non-scaling-stroke"  x="-540" y="-540" rx="0" ry="0" width="1080" height="1080" />
</g>
<g transform="matrix(1 0 0 1 540 540)" id="f2fc72e6-4214-442d-9af7-7b2338d8115f"  >
</g>
<g transform="matrix(43.2 0 0 43.2 540 540)"  >
<g style=""   >
		<g transform="matrix(1 0 0 1 -2.15 -0.04)" id="surface1" clip-path="url(#CLIPPATH_3)"  >
<clipPath id="CLIPPATH_3" >
	<rect transform="matrix(1 0 0 1 2.15 0.04)" id="clip1" x="-12.5" y="-12.5" rx="0" ry="0" width="25" height="25" />
</clipPath>
<path style="stroke: none; stroke-width: 1; stroke-dasharray: none; stroke-linecap: butt; stroke-dashoffset: 0; stroke-linejoin: miter; stroke-miterlimit: 4; fill: rgb(0,0,0); fill-rule: evenodd; opacity: 1;" vector-effect="non-scaling-stroke"  transform=" translate(-10.35, -12.46)" d="M 7.859375 6.203125 C 8.578125 6.203125 9.292969 6.203125 10.007812 6.203125 C 9.914062 7.242188 9.8125 8.285156 9.71875 9.328125 C 10.367188 9.328125 11.019531 9.328125 11.671875 9.328125 C 11.808594 8.289062 11.90625 7.246094 11.960938 6.203125 C 12.710938 6.203125 13.460938 6.203125 14.210938 6.203125 C 14.074219 7.238281 13.976562 8.28125 13.914062 9.328125 C 14.46875 9.328125 15.023438 9.328125 15.578125 9.328125 C 15.578125 10.042969 15.578125 10.757812 15.578125 11.476562 C 14.925781 11.476562 14.273438 11.476562 13.625 11.476562 C 13.582031 12.128906 13.519531 12.78125 13.429688 13.429688 C 14.144531 13.429688 14.859375 13.429688 15.578125 13.429688 C 15.578125 14.144531 15.578125 14.859375 15.578125 15.578125 C 14.796875 15.578125 14.015625 15.578125 13.234375 15.578125 C 13.09375 16.613281 12.996094 17.65625 12.9375 18.703125 C 12.191406 18.703125 11.441406 18.703125 10.695312 18.703125 C 10.828125 17.664062 10.925781 16.621094 10.984375 15.578125 C 10.335938 15.578125 9.683594 15.578125 9.03125 15.578125 C 8.9375 16.617188 8.835938 17.660156 8.742188 18.703125 C 7.992188 18.71875 7.242188 18.703125 6.492188 18.652344 C 6.648438 17.632812 6.777344 16.609375 6.882812 15.578125 C 6.296875 15.578125 5.710938 15.578125 5.125 15.578125 C 5.125 14.859375 5.125 14.144531 5.125 13.429688 C 5.777344 13.429688 6.429688 13.429688 7.078125 13.429688 C 7.15625 12.777344 7.222656 12.128906 7.273438 11.476562 C 6.558594 11.476562 5.84375 11.476562 5.125 11.476562 C 5.125 10.757812 5.125 10.042969 5.125 9.328125 C 5.941406 9.328125 6.753906 9.328125 7.570312 9.328125 C 7.625 8.28125 7.722656 7.238281 7.859375 6.203125 Z M 9.421875 11.476562 C 10.109375 11.476562 10.789062 11.476562 11.476562 11.476562 C 11.382812 12.121094 11.320312 12.773438 11.28125 13.429688 C 10.628906 13.429688 9.976562 13.429688 9.328125 13.429688 C 9.359375 12.777344 9.390625 12.125 9.421875 11.476562 Z M 9.421875 11.476562" stroke-linecap="round" />
</g>
		<g transform="matrix(1 0 0 1 6.2 -2.1)" id="surface1" clip-path="url(#CLIPPATH_4)"  >
<clipPath id="CLIPPATH_4" >
	<rect transform="matrix(1 0 0 1 -6.2 2.1)" id="clip2" x="-12.5" y="-12.5" rx="0" ry="0" width="25" height="25" />
</clipPath>
<path style="stroke: none; stroke-width: 1; stroke-dasharray: none; stroke-linecap: butt; stroke-dashoffset: 0; stroke-linejoin: miter; stroke-miterlimit: 4; fill: rgb(0,0,0); fill-rule: evenodd; opacity: 1;" vector-effect="non-scaling-stroke"  transform=" translate(-18.7, -10.4)" d="M 17.625 6.203125 C 18.34375 6.203125 19.058594 6.203125 19.773438 6.203125 C 19.773438 9 19.773438 11.800781 19.773438 14.601562 C 19.058594 14.601562 18.34375 14.601562 17.625 14.601562 C 17.625 11.800781 17.625 9 17.625 6.203125 Z M 17.625 6.203125" stroke-linecap="round" />
</g>
		<g transform="matrix(1 0 0 1 6.2 5.13)" id="surface1" clip-path="url(#CLIPPATH_5)"  >
<clipPath id="CLIPPATH_5" >
	<rect transform="matrix(1 0 0 1 -6.2 -5.13)" id="clip3" x="-12.5" y="-12.5" rx="0" ry="0" width="25" height="25" />
</clipPath>
<path style="stroke: none; stroke-width: 1; stroke-dasharray: none; stroke-linecap: butt; stroke-dashoffset: 0; stroke-linejoin: miter; stroke-miterlimit: 4; fill: rgb(0,0,0); fill-rule: evenodd; opacity: 1;" vector-effect="non-scaling-stroke"  transform=" translate(-18.7, -17.63)" d="M 17.625 16.554688 C 18.34375 16.554688 19.058594 16.554688 19.773438 16.554688 C 19.773438 17.269531 19.773438 17.984375 19.773438 18.703125 C 19.058594 18.703125 18.34375 18.703125 17.625 18.703125 C 17.625 17.984375 17.625 17.269531 17.625 16.554688 Z M 17.625 16.554688" stroke-linecap="round" />
</g>
</g>
</g>
</svg>